<svg width="42" height="42" viewBox="0 0 42 42" fill="none" xmlns="http://www.w3.org/2000/svg">
<path d="M10.5 37.673C10.5 37.673 18 42 21 42C25.5 42 31.5 37.673 31.5 37.673C31.552 37.617 31.596 37.556 31.647 37.5H10.353C10.404 37.556 10.448 37.617 10.5 37.673ZM18 2.675V0.386C13.371 1.348 4.757 4.716 2.225 16.5H0.75C0.337 16.5 0 16.838 0 17.25V20.25C0 20.662 0.337 21 0.75 21H1.604C1.57 21.488 1.548 21.988 1.532 22.5H0.75C0.337 22.5 0 22.838 0 23.25V26.25C0 26.662 0.337 27 0.75 27H1.706C1.9 28.721 2.276 30.928 3 33.201V39H8.678C3.817 33.669 3.75 24.148 3.75 23.738C3.75 8.05 13.06 3.818 18 2.675ZM22.5 0H19.5V4.482H22.5V0ZM24 4.954V5.982H18V4.954C13.623 6.079 6 10.009 6 23.738C6 23.738 6.009 31.082 9.201 36H18V34.5H24V36H32.799C35.991 31.082 36 23.738 36 23.738C36 10.009 28.377 6.079 24 4.954ZM10.125 25.43C9.433 24.638 9 23.615 9 22.482C9 21.347 9.433 20.324 10.125 19.533V25.43ZM13.125 21.057C12.483 21.227 12 21.785 12 22.482C12 23.176 12.483 23.736 13.125 23.906V26.943C12.289 26.874 11.518 26.588 10.875 26.123V18.84C11.518 18.375 12.289 18.09 13.125 18.019V21.057ZM16.125 26.123C15.482 26.588 14.711 26.874 13.875 26.943V23.906C14.517 23.736 15 23.177 15 22.482C15 21.785 14.517 21.226 13.875 21.056V18.018C14.711 18.089 15.482 18.374 16.125 18.839V26.123ZM16.875 25.43V19.534C17.567 20.325 18 21.348 18 22.482C18 23.615 17.567 24.638 16.875 25.43ZM21 28.5L18 30L21 27L24 30L21 28.5ZM25.125 25.43C24.433 24.638 24 23.615 24 22.482C24 21.347 24.433 20.324 25.125 19.533V25.43ZM28.125 21.057C27.483 21.227 27 21.785 27 22.482C27 23.176 27.483 23.736 28.125 23.906V26.943C27.289 26.874 26.518 26.588 25.875 26.123V18.84C26.518 18.375 27.289 18.09 28.125 18.019V21.057ZM31.125 26.123C30.482 26.588 29.711 26.874 28.875 26.943V23.906C29.517 23.736 30 23.177 30 22.482C30 21.785 29.517 21.226 28.875 21.056V18.018C29.711 18.089 30.482 18.374 31.125 18.839V26.123ZM31.875 25.43V19.534C32.567 20.325 33 21.348 33 22.482C33 23.615 32.567 24.638 31.875 25.43ZM42 20.25V17.25C42 16.838 41.663 16.5 41.25 16.5H39.775C37.243 4.716 28.629 1.348 24 0.386V2.675C28.94 3.818 38.25 8.05 38.25 23.738C38.25 24.148 38.184 33.669 33.322 39H39V33.201C39.724 30.928 40.1 28.721 40.294 27H41.25C41.663 27 42 26.662 42 26.25V23.25C42 22.838 41.663 22.5 41.25 22.5H40.468C40.452 21.988 40.43 21.488 40.397 21H41.251C41.663 21 42 20.662 42 20.25Z" fill="#FECA30"/>
</svg>
