<svg width="39" height="42" viewBox="0 0 39 42" fill="none" xmlns="http://www.w3.org/2000/svg">
<path d="M15.964 13.412C15.624 9.89799 14.837 4.79399 13.439 1.33099C11.786 2.11299 10.335 3.20399 9.064 4.52599C12.497 7.43299 14.803 11.204 15.964 13.412Z" fill="#FECA30"/>
<path d="M29.938 4.526C28.667 3.204 27.214 2.113 25.562 1.332C24.164 4.794 23.376 9.898 23.037 13.412C24.197 11.204 26.502 7.432 29.938 4.526Z" fill="#FECA30"/>
<path d="M33.675 9.887C28.497 12.442 25.833 15.574 25.79 15.627C25.715 15.716 25.608 15.764 25.5 15.764C25.416 15.764 25.332 15.736 25.261 15.678C25.102 15.546 25.078 15.311 25.21 15.152C25.255 15.095 27.998 11.862 33.325 9.228C32.495 7.718 31.542 6.323 30.453 5.089C25.461 9.297 22.886 15.436 22.847 15.529C22.833 15.564 22.803 15.583 22.782 15.611C22.763 15.632 22.754 15.654 22.732 15.672C22.665 15.727 22.587 15.764 22.501 15.764H22.479C22.473 15.764 22.47 15.757 22.464 15.756C22.429 15.752 22.394 15.749 22.36 15.735C22.332 15.724 22.324 15.693 22.299 15.675C22.257 15.647 22.226 15.619 22.199 15.576C22.173 15.535 22.163 15.497 22.154 15.449C22.148 15.419 22.123 15.397 22.125 15.365C22.156 14.846 22.698 6.338 24.876 1.03C23.27 0.379 21.492 0 19.5 0C17.508 0 15.73 0.379 14.124 1.031C16.302 6.34 16.844 14.847 16.875 15.366C16.877 15.398 16.852 15.42 16.846 15.45C16.837 15.498 16.827 15.536 16.801 15.577C16.775 15.62 16.743 15.647 16.701 15.676C16.677 15.694 16.669 15.725 16.64 15.736C16.607 15.75 16.572 15.753 16.536 15.757C16.53 15.758 16.527 15.765 16.521 15.765H16.5C16.413 15.765 16.336 15.728 16.269 15.673C16.248 15.655 16.238 15.634 16.219 15.612C16.198 15.584 16.167 15.565 16.154 15.53C16.115 15.436 13.54 9.298 8.548 5.09C7.458 6.322 6.505 7.718 5.675 9.228C11.002 11.862 13.745 15.095 13.79 15.152C13.922 15.311 13.898 15.547 13.739 15.678C13.668 15.736 13.584 15.764 13.5 15.764C13.392 15.764 13.285 15.716 13.21 15.627C13.167 15.573 10.504 12.441 5.325 9.887C0.00699997 20.179 0 34.814 0 34.814C0 36.297 1.247 37.5 2.786 37.5H9L12.726 40.646L15.435 39.291L19.5 42L23.565 39.29L26.274 40.645L30 37.5H36.214C37.753 37.5 39 36.297 39 34.814C39 34.814 38.993 20.179 33.675 9.887ZM22.694 18.775H25.305C25.425 18.991 25.499 19.236 25.499 19.5C25.499 20.328 24.827 21 23.999 21C23.171 21 22.499 20.328 22.499 19.5C22.5 19.236 22.574 18.991 22.694 18.775ZM19.5 22.5C21.63 22.5 23.357 23.507 23.357 24.75C23.357 24.894 23.329 25.032 23.285 25.167C23.102 25.111 22.914 25.072 22.714 25.072C21.697 25.072 20.873 25.861 20.8 26.86C20.392 26.945 19.959 27 19.5 27C19.041 27 18.608 26.945 18.2 26.86C18.127 25.861 17.303 25.072 16.286 25.072C16.086 25.072 15.897 25.111 15.715 25.167C15.671 25.032 15.643 24.894 15.643 24.75C15.643 23.507 17.37 22.5 19.5 22.5ZM13.694 18.775H16.305C16.425 18.991 16.499 19.236 16.499 19.5C16.499 20.328 15.827 21 14.999 21C14.171 21 13.499 20.328 13.499 19.5C13.5 19.236 13.574 18.991 13.694 18.775ZM8.25 30.75C8.25 31.165 7.915 31.5 7.5 31.5C7.085 31.5 6.75 31.165 6.75 30.75C6.75 27.646 9.808 25.04 14.285 23.889C14.198 24.164 14.142 24.451 14.142 24.75C14.142 24.986 14.196 25.226 14.26 25.468C10.72 26.492 8.25 28.499 8.25 30.75ZM25.478 33.408C25.422 33.63 25.223 33.776 25.007 33.775H15.634H15.198C14.253 33.771 13.49 32.95 13.494 31.996C13.498 31.041 14.267 30.271 15.213 30.275C15.357 30.276 15.502 30.296 15.634 30.33L25.007 32.779L25.13 32.811C25.39 32.879 25.545 33.146 25.478 33.408ZM31.5 31.5C31.085 31.5 30.75 31.165 30.75 30.75C30.75 28.499 28.28 26.492 24.739 25.468C24.803 25.226 24.857 24.987 24.857 24.75C24.857 24.45 24.801 24.164 24.714 23.889C29.192 25.04 32.249 27.646 32.249 30.75C32.25 31.165 31.915 31.5 31.5 31.5Z" fill="#FECA30"/>
</svg>
