<svg width="42" height="42" viewBox="0 0 42 42" fill="none" xmlns="http://www.w3.org/2000/svg">
<path d="M36 17.4V12C36 5.4 30.6 0 24 0H18C11.399 0 6 5.4 6 12V17.4L0 33C0 36 9.401 42 21 42C32.598 42 42 36 42 33L36 17.4ZM12 37.125C11.378 37.125 10.875 36.622 10.875 36C10.875 35.378 11.378 34.875 12 34.875C12.622 34.875 13.125 35.378 13.125 36C13.125 36.622 12.622 37.125 12 37.125ZM10.5 21C10.5 20.175 10.916 18.969 11.425 18.32C11.425 18.32 12.851 16.5 15.75 16.5C17.221 16.5 18.247 17.176 18.247 17.176C18.935 17.629 19.5 18.675 19.5 19.5V21.75C19.5 22.163 18.825 22.5 18 22.5H12C11.175 22.5 10.5 21.825 10.5 21ZM16.5 36H15V33L16.5 31.5V36ZM20.25 36H18V30H20.25V36ZM18.75 28.5V26.25C18.75 25.007 19.758 24 21 24C22.243 24 23.25 25.007 23.25 26.25V28.5H18.75ZM24 36H21.75V30H24V36ZM27 36H25.5V31.5L27 33V36ZM30 37.125C29.378 37.125 28.875 36.622 28.875 36C28.875 35.378 29.378 34.875 30 34.875C30.622 34.875 31.125 35.378 31.125 36C31.125 36.622 30.622 37.125 30 37.125ZM30 22.5H24C23.175 22.5 22.5 22.163 22.5 21.75V19.5C22.5 18.675 23.063 17.629 23.753 17.176C23.753 17.176 24.778 16.5 26.25 16.5C29.149 16.5 30.575 18.32 30.575 18.32C31.084 18.969 31.5 20.175 31.5 21C31.5 21.825 30.825 22.5 30 22.5ZM39.271 33.699C39.183 33.733 39.091 33.75 39 33.75C38.7 33.75 38.416 33.568 38.302 33.272L32.847 19.26C31.405 15.656 29.622 14.249 26.49 14.249C24.411 14.249 22.668 15.538 22.65 15.552C21.725 16.246 20.276 16.243 19.35 15.552C19.335 15.538 17.575 14.249 15.511 14.249C12.379 14.249 10.595 15.656 9.151 19.266L3.699 33.272C3.549 33.658 3.111 33.849 2.727 33.699C2.341 33.55 2.15 33.115 2.301 32.727L7.755 18.716C9.428 14.532 11.747 12.749 15.51 12.749C18.084 12.749 20.162 14.286 20.249 14.35C20.642 14.646 21.356 14.646 21.748 14.35C21.836 14.286 23.915 12.749 26.488 12.749C30.251 12.749 32.569 14.532 34.241 18.71L39.698 32.727C39.849 33.115 39.658 33.55 39.271 33.699Z" fill="#FECA30"/>
</svg>
