<svg width="42" height="42" viewBox="0 0 42 42" fill="none" xmlns="http://www.w3.org/2000/svg">
<g clip-path="url(#clip0)">
<path d="M41.924 20.25C41.878 18.968 41.732 17.713 41.467 16.5H32.962V15H35.962V13.5H29.962V12H34.462V10.5H32.962V9H29.962V7.5H31.462V6H28.462V4.5H29.962V3V2.048C27.232 0.749 24.188 0 20.962 0C9.617 0 0.398 9.002 0 20.25H41.924ZM13.462 4.5C16.775 4.5 19.462 7.187 19.462 10.5C19.462 13.814 16.775 16.5 13.462 16.5C10.148 16.5 7.462 13.814 7.462 10.5C7.462 7.187 10.148 4.5 13.462 4.5Z" fill="#FECA30"/>
<path d="M25.462 40.5H23.962V39H28.462V37.5H29.962V36H34.462V34.5H35.962V33H32.962V31.5H28.462V30H31.462V28.5H37.462V27H34.462V25.5H41.467C41.732 24.287 41.878 23.032 41.924 21.75H0C0.398 32.999 9.617 42 20.962 42C22.509 42 24.012 41.821 25.462 41.505V40.5Z" fill="#FECA30"/>
</g>
<defs>
<clipPath id="clip0">
<rect width="41.924" height="42" fill="white"/>
</clipPath>
</defs>
</svg>
