<svg width="42" height="42" viewBox="0 0 42 42" fill="none" xmlns="http://www.w3.org/2000/svg">
<g clip-path="url(#clip0)">
<path d="M16.281 6.655L20.068 0.33C19.623 0.138 19.151 0 18.636 0C16.56 0 14.877 1.683 14.877 3.759C14.877 4.935 15.434 5.967 16.281 6.655Z" fill="#FECA30"/>
<path d="M41.974 25.354L40.966 24.681C40.771 21.408 39.602 18.217 37.54 15.576L34.904 15.915L35.087 15.642C35.775 14.613 35.494 13.209 34.466 12.521L32.996 11.54C31.968 10.853 30.563 11.133 29.876 12.162L29.669 12.471L28.499 5.47099L21.385 1.04999L17.57 7.42199L19.441 8.46699L5.863 6.74599L3.898 9.68699L12.089 15.158C11.72 15.601 11.364 16.059 11.037 16.549C10.71 17.039 10.423 17.543 10.155 18.053L1.965 12.582L0 15.523L10.609 34.09L10.627 34.061C10.84 34.416 11.076 34.76 11.316 35.103L14.857 34.648L14.199 35.631C13.512 36.66 13.792 38.065 14.821 38.752L16.29 39.733C17.319 40.42 18.723 40.141 19.41 39.112L19.959 38.291L20.362 41.426C23.446 42.264 26.677 42.153 29.655 41.197L30.857 42C34.144 40.84 37.097 38.646 39.183 35.525C41.269 32.403 42.164 28.834 41.974 25.354ZM29.894 34.168C29.664 34.513 29.199 34.605 28.854 34.375C28.509 34.145 28.417 33.68 28.647 33.334C28.876 32.99 29.343 32.897 29.687 33.127C30.032 33.357 30.125 33.823 29.894 34.168ZM29.632 28.969C28.517 30.64 26.65 31.638 24.64 31.638C23.452 31.638 22.302 31.287 21.311 30.625C18.56 28.789 17.818 25.057 19.654 22.306C20.77 20.634 22.636 19.637 24.649 19.637C25.836 19.637 26.985 19.987 27.976 20.647C30.726 22.485 31.468 26.22 29.632 28.969ZM32.015 37.26C31.786 37.604 31.32 37.697 30.976 37.467C30.63 37.237 30.538 36.771 30.769 36.426C30.999 36.082 31.464 35.989 31.808 36.22C32.153 36.449 32.246 36.914 32.015 37.26ZM32.599 31.371C32.37 31.715 31.905 31.808 31.56 31.578C31.216 31.348 31.122 30.881 31.353 30.537C31.583 30.192 32.048 30.099 32.392 30.33C32.738 30.561 32.83 31.025 32.599 31.371ZM33.108 28.006C32.763 27.777 32.671 27.311 32.901 26.965C33.13 26.621 33.597 26.528 33.942 26.758C34.286 26.988 34.379 27.455 34.149 27.799C33.919 28.144 33.453 28.236 33.108 28.006ZM35.495 33.304C35.266 33.649 34.801 33.741 34.455 33.51C34.111 33.281 34.017 32.816 34.248 32.471C34.478 32.127 34.944 32.033 35.288 32.264C35.632 32.494 35.724 32.959 35.495 33.304ZM37.817 28.574C37.588 28.92 37.121 29.012 36.777 28.781C36.431 28.551 36.339 28.086 36.57 27.742C36.8 27.397 37.265 27.304 37.61 27.535C37.954 27.765 38.046 28.23 37.817 28.574Z" fill="#FECA30"/>
<path d="M27.142 21.895C26.399 21.398 25.537 21.136 24.649 21.136C23.139 21.136 21.738 21.885 20.902 23.137C19.524 25.201 20.082 28 22.144 29.377C22.886 29.874 23.749 30.138 24.639 30.138C26.148 30.138 27.548 29.389 28.384 28.137C29.763 26.072 29.205 23.273 27.142 21.895Z" fill="#FECA30"/>
</g>
<defs>
<clipPath id="clip0">
<rect width="42" height="42" fill="white"/>
</clipPath>
</defs>
</svg>
