<svg width="42" height="42" viewBox="0 0 42 42" fill="none" xmlns="http://www.w3.org/2000/svg">
<path d="M39 34.5V16.5C39 14.844 37.656 13.5 36 13.5H33V16.5V19.5V34.5L30 42H42L39 34.5Z" fill="#FECA30"/>
<path d="M9 19.5V16.5V13.5H6C4.343 13.5 3 14.843 3 16.5V34.5L0 42H12L9 34.5V19.5Z" fill="#FECA30"/>
<path d="M31.45 12H31.5V10.498C31.5 4.701 26.798 0 21 0C15.202 0 10.5 4.701 10.5 10.498V12H10.55H31.45ZM27 7.5C27.829 7.5 28.5 8.173 28.5 9C28.5 9.828 27.829 10.5 27 10.5C26.171 10.5 25.5 9.828 25.5 9C25.5 8.173 26.171 7.5 27 7.5ZM21 2.25C22.654 2.25 24 3.596 24 5.25C24 6.905 22.654 8.25 21 8.25C19.342 8.25 18 6.905 18 5.25C18 3.596 19.342 2.25 21 2.25Z" fill="#FECA30"/>
<path d="M31.5 13.5H10.5V34.5L13.5 37.5H28.5L31.5 34.5V13.5ZM25.5 25.5H16.5C15.671 25.5 15 24.829 15 24C15 23.171 15.671 22.5 16.5 22.5H25.5C26.329 22.5 27 23.171 27 24C27 24.829 26.329 25.5 25.5 25.5ZM25.5 19.5H16.5C15.671 19.5 15 18.828 15 18C15 17.172 15.671 16.5 16.5 16.5H25.5C26.329 16.5 27 17.172 27 18C27 18.828 26.329 19.5 25.5 19.5Z" fill="#FECA30"/>
</svg>
