<svg width="567" height="559" viewBox="0 0 567 559" fill="none" xmlns="http://www.w3.org/2000/svg">
<path d="M288.982 54.5V109L293.582 109.7C296.182 110 300.782 110.3 303.882 110.3C312.382 110.3 313.382 111.5 312.682 119.9C312.382 123.7 310.082 140.3 307.682 156.8C305.182 173.3 302.882 188.9 302.482 191.5C301.782 196.9 301.882 197 311.482 199.2C323.582 202 338.982 211.3 351.582 223.5L356.582 228.4L388.582 203.7C406.082 190.1 421.482 178.6 422.682 178C424.582 177.2 425.282 177.4 426.982 179.4C432.782 186.2 447.482 213.5 446.582 215.8C446.382 216.5 431.382 222.9 413.282 230.1C395.282 237.2 377.882 244.3 374.582 245.7L368.682 248.3L369.282 252.1C369.582 254.1 370.582 258.9 371.382 262.8C373.782 273.5 373.482 286.9 370.482 299.1C369.082 304.8 368.182 309.9 368.582 310.4C369.582 312.1 378.882 316.3 409.782 328.9C449.682 345.3 446.282 343.3 444.382 348.5C440.582 359.3 427.482 381.4 424.082 382.8C422.282 383.5 422.782 383.9 388.482 356.8C373.082 344.6 359.482 334.1 358.282 333.5C356.282 332.4 355.282 333 348.782 338.6C335.782 349.9 329.082 353.8 312.982 359.2L302.482 362.8L302.182 366.4C301.982 368.3 303.882 384.8 306.382 402.9C312.982 451.6 312.682 447.1 309.682 447.8C308.282 448.2 302.882 448.8 297.782 449.1L288.482 449.8V504.3V558.8L294.982 558.5C304.582 558 327.882 554.6 340.782 551.7C395.482 539.5 445.182 514.1 482.082 479.6C525.982 438.6 553.982 386.9 562.882 330.3C566.282 309.1 567.182 276.3 564.982 254.7C554.782 152.7 501.482 71.5 417.082 29.3C381.182 11.3 345.282 2.19998 304.782 0.599979L288.982 -2.05338e-05V54.5ZM340.982 28.3C386.082 35.6 433.482 59.7 467.882 92.8C479.482 104 487.582 113.5 494.182 123.8C498.082 129.9 505.982 144.5 505.982 145.7C505.982 145.9 503.382 147.6 500.282 149.5C497.082 151.4 493.282 153.7 491.882 154.6L489.282 156.4L480.182 144.1C475.282 137.3 469.282 129.6 466.982 127L462.782 122.2L456.482 128.3C452.982 131.6 449.282 134.3 448.282 134.3C445.982 134.3 443.382 132.5 434.982 125.3C413.782 107.2 387.382 91.2 357.482 78.2C351.982 75.9 347.382 73.8 347.182 73.7C346.982 73.6 347.882 69.7 349.082 64.9C352.282 52.2 352.482 52.3 322.582 48.3C314.382 47.2 307.282 46.3 306.882 46.3C305.582 46.3 305.782 31 306.982 27.7L308.082 25L318.282 25.6C323.882 26 334.082 27.2 340.982 28.3ZM521.782 175.5C531.582 199.3 539.482 231.9 542.082 259.7C543.582 275.9 542.682 315 540.582 328.8C538.282 342.8 534.382 358.2 530.382 368.7C526.482 378.7 517.382 396.7 515.282 398.5C514.182 399.4 512.082 398.8 505.882 395.7C501.482 393.6 497.482 391.4 497.082 390.8C496.582 390.3 499.282 383 502.982 374.8C512.682 353.2 512.882 352.4 510.582 350.7C509.582 350 505.782 348.4 502.282 347.2C498.682 346.1 495.582 344.5 495.282 343.7C495.082 343 495.282 340 495.982 337.1C501.182 313.1 501.082 314.6 501.082 281.5C501.082 256.5 500.682 247.5 499.382 239.2C498.482 233.3 497.882 227.9 498.282 227.1C498.582 226.3 502.482 224.6 507.382 223.3C512.382 222 515.982 220.5 515.982 219.8C515.982 218.1 510.282 201.8 505.082 188.4C502.782 182.6 500.982 177.5 500.982 177.1C500.982 176.3 516.582 168.3 518.082 168.3C518.482 168.3 520.182 171.6 521.782 175.5ZM491.582 415.1C500.082 420.7 500.682 421.6 498.382 425.8C494.482 433.1 480.882 450.2 471.682 459.5C429.982 501.4 370.282 528.3 306.582 533.9C300.482 534.4 298.582 534.3 297.882 533.2C297.382 532.4 296.982 527.7 296.982 522.7V513.6L304.782 512.9C316.482 511.9 336.582 509.1 337.882 508.4C338.682 507.9 338.582 505.3 337.482 499.2C336.682 494.6 335.982 490.3 335.982 489.7C335.982 489.1 338.982 487.8 342.782 486.9C374.282 479.2 399.982 465.8 428.482 442.4C434.582 437.4 439.782 433.4 440.182 433.6C440.582 433.7 443.982 436.6 447.782 440L454.682 446.2L458.182 442C460.082 439.7 466.482 431.8 472.382 424.5C478.282 417.3 483.682 411.3 484.382 411.3C485.082 411.3 488.282 413 491.582 415.1Z" fill="#FECA30"/>
<path d="M254.782 23.4999C243.082 35.7999 230.382 48.9999 226.682 52.8999L219.882 60.0999L224.582 67.3999C227.182 71.3999 230.182 76.8999 231.182 79.6999C233.282 84.9999 235.882 106.7 234.682 108C234.282 108.4 231.882 106.2 229.282 103.2C221.582 94.1999 206.082 79.0999 204.882 79.4999C202.782 80.1999 176.982 108.8 176.982 110.5C176.982 111.4 182.982 118.5 190.282 126.1C212.282 149 224.382 165.2 233.282 183.6C242.782 203 246.282 217.7 246.182 237.3C246.182 254.2 243.382 266.1 235.982 280.8C227.482 297.8 215.382 310.4 200.582 317.7C190.282 322.8 182.182 324.7 170.482 324.7C151.782 324.7 141.582 320 125.482 303.8C109.382 287.6 100.882 272 95.1815 247.8C92.7815 237.7 92.5815 235 92.4815 214.8C92.4815 190.2 93.5815 181.8 99.5815 160.8C111.482 119.3 135.482 78.4999 166.882 46.0999C180.582 31.8999 189.282 24.2999 204.382 13.3999C215.382 5.39994 215.082 4.79994 201.382 8.29994C170.282 16.2999 125.882 39.7999 97.9815 63.0999C85.7815 73.2999 68.3815 91.2999 57.4815 105C28.1815 141.8 11.6815 177.9 2.88152 224.8C0.181519 238.7 -0.918481 281.1 0.881519 301.5C5.38152 352.3 29.1815 409.9 63.4815 452.8C73.6815 465.6 96.6815 488.6 109.482 498.8C152.482 533.2 207.382 554 265.582 557.9C274.782 558.5 275.782 558.4 276.582 556.7C277.782 554.1 278.382 1.29994 277.082 1.29994C276.582 1.29994 266.582 11.2999 254.782 23.4999Z" fill="#FECA30"/>
</svg>
