<svg width="42" height="42" viewBox="0 0 42 42" fill="none" xmlns="http://www.w3.org/2000/svg">
<path d="M18 35.25C17.585 35.25 17.25 35.585 17.25 36V40.5C17.25 40.915 17.585 41.25 18 41.25C18.415 41.25 18.75 40.915 18.75 40.5V36C18.75 35.585 18.415 35.25 18 35.25Z" fill="#FECA30"/>
<path d="M24 35.25C23.585 35.25 23.25 35.585 23.25 36V40.5C23.25 40.915 23.585 41.25 24 41.25C24.415 41.25 24.75 40.915 24.75 40.5V36C24.75 35.585 24.415 35.25 24 35.25Z" fill="#FECA30"/>
<path d="M37.5 10.5V9C37.5 4.05 33.391 0 28.371 0H21H13.629C8.609 0 4.5 4.05 4.5 9V10.5H21H37.5Z" fill="#FECA30"/>
<path d="M39 22.5V15C39 15 39 13.5 37.5 13.5V12H21H4.5V13.5C3 13.5 3 15 3 15V22.5C1.097 23.342 0 24.913 0 27C0 29.788 4.469 33.694 4.469 34.5C4.469 39 7.579 42 12.116 42C13.775 42 15.297 41.475 16.521 40.604C16.518 40.567 16.5 40.537 16.5 40.5V36C16.5 35.172 17.174 34.5 18 34.5C18.669 34.5 19.217 34.948 19.409 35.556H19.5V35.25C19.5 34.422 20.174 33.75 21 33.75C21.826 33.75 22.5 34.422 22.5 35.25V35.556H22.591C22.783 34.948 23.331 34.5 24 34.5C24.826 34.5 25.5 35.172 25.5 36V40.5C25.5 40.537 25.482 40.567 25.479 40.604C26.703 41.475 28.225 42 29.884 42C34.421 42 37.531 39 37.531 34.5C37.531 33.694 42 29.788 42 27C42 24.913 40.903 23.342 39 22.5ZM11.25 39C10.008 39 9 37.992 9 36.75C9 35.508 10.008 34.5 11.25 34.5C12.492 34.5 13.5 35.508 13.5 36.75C13.5 37.992 12.492 39 11.25 39ZM13.5 28.5H10.928C10.679 28.5 10.5 28.365 10.5 28.2C10.5 28.034 10.679 27.863 10.928 27.813L13.5 27V28.5ZM18 26.609C17.124 26.972 16.277 27.422 15.445 27.832C15.311 27.898 15.152 27.948 15 28.001V25.922C16.065 25.006 17.016 24.378 18 23.966V26.609ZM10.5 21C7.5 21 7.5 15 7.5 15H19.5C19.5 15 13.5 21 10.5 21ZM22.5 26.109C22.011 25.992 21.513 25.921 21 25.921C20.487 25.921 19.989 25.991 19.5 26.109V23.51C19.975 23.416 20.47 23.358 21 23.335C21.53 23.357 22.025 23.416 22.5 23.51V26.109ZM27 28.001C26.848 27.948 26.689 27.898 26.555 27.832C25.723 27.423 24.876 26.973 24 26.609V23.965C24.984 24.377 25.935 25.005 27 25.921V28.001ZM30.75 39C29.508 39 28.5 37.992 28.5 36.75C28.5 35.508 29.508 34.5 30.75 34.5C31.992 34.5 33 35.508 33 36.75C33 37.992 31.992 39 30.75 39ZM28.5 28.5V27L31.072 27.813C31.321 27.863 31.5 28.034 31.5 28.2C31.5 28.365 31.321 28.5 31.072 28.5H28.5ZM31.5 21C28.5 21 22.5 15 22.5 15H34.5C34.5 15 34.5 21 31.5 21Z" fill="#FECA30"/>
<path d="M21 34.5C20.585 34.5 20.25 34.835 20.25 35.25V41.25C20.25 41.665 20.585 42 21 42C21.415 42 21.75 41.665 21.75 41.25V35.25C21.75 34.835 21.415 34.5 21 34.5Z" fill="#FECA30"/>
</svg>
